<mxfile host="app.diagrams.net" modified="2023-07-09T19:03:24.926Z" agent="Mozilla/5.0 (Windows NT 10.0; Win64; x64) AppleWebKit/537.36 (KHTML, like Gecko) Chrome/114.0.0.0 Safari/537.36    " etag="ytLHZnlWGwgZrs5esEVC" version="21.6.1" type="github">
  <diagram name="Page-1" id="VcZ2mwIFTq0KuZYb1ZvV">
    <mxGraphModel dx="478" dy="256" grid="1" gridSize="10" guides="1" tooltips="1" connect="1" arrows="1" fold="1" page="1" pageScale="1" pageWidth="850" pageHeight="1100" math="0" shadow="0">
      <root>
        <mxCell id="0" />
        <mxCell id="1" parent="0" />
        <mxCell id="hDMgDi6doxB5p-2fpFnf-15" value="" style="edgeStyle=orthogonalEdgeStyle;rounded=0;orthogonalLoop=1;jettySize=auto;html=1;" edge="1" parent="1" source="hDMgDi6doxB5p-2fpFnf-1">
          <mxGeometry relative="1" as="geometry">
            <mxPoint x="390" y="230" as="targetPoint" />
          </mxGeometry>
        </mxCell>
        <mxCell id="hDMgDi6doxB5p-2fpFnf-1" value="root" style="text;html=1;align=center;verticalAlign=middle;resizable=0;points=[];autosize=1;strokeColor=none;fillColor=none;" vertex="1" parent="1">
          <mxGeometry x="310" y="188" width="40" height="30" as="geometry" />
        </mxCell>
        <mxCell id="hDMgDi6doxB5p-2fpFnf-16" value="nullptr" style="text;html=1;align=center;verticalAlign=middle;resizable=0;points=[];autosize=1;strokeColor=none;fillColor=none;" vertex="1" parent="1">
          <mxGeometry x="360" y="228" width="60" height="30" as="geometry" />
        </mxCell>
        <mxCell id="hDMgDi6doxB5p-2fpFnf-20" value="insert 50" style="text;html=1;align=center;verticalAlign=middle;resizable=0;points=[];autosize=1;strokeColor=none;fillColor=none;" vertex="1" parent="1">
          <mxGeometry x="425" y="218" width="70" height="30" as="geometry" />
        </mxCell>
        <mxCell id="hDMgDi6doxB5p-2fpFnf-21" value="empty&lt;br&gt;less&lt;br&gt;greater" style="text;html=1;align=center;verticalAlign=middle;resizable=0;points=[];autosize=1;strokeColor=none;fillColor=none;" vertex="1" parent="1">
          <mxGeometry x="430" y="243" width="60" height="60" as="geometry" />
        </mxCell>
        <mxCell id="hDMgDi6doxB5p-2fpFnf-23" style="edgeStyle=orthogonalEdgeStyle;rounded=0;orthogonalLoop=1;jettySize=auto;html=1;" edge="1" parent="1" source="hDMgDi6doxB5p-2fpFnf-22">
          <mxGeometry relative="1" as="geometry">
            <mxPoint x="300" y="430" as="targetPoint" />
          </mxGeometry>
        </mxCell>
        <mxCell id="hDMgDi6doxB5p-2fpFnf-22" value="root" style="text;html=1;align=center;verticalAlign=middle;resizable=0;points=[];autosize=1;strokeColor=none;fillColor=none;" vertex="1" parent="1">
          <mxGeometry x="230" y="358" width="40" height="30" as="geometry" />
        </mxCell>
        <mxCell id="hDMgDi6doxB5p-2fpFnf-25" style="edgeStyle=orthogonalEdgeStyle;rounded=0;orthogonalLoop=1;jettySize=auto;html=1;" edge="1" parent="1" source="hDMgDi6doxB5p-2fpFnf-24">
          <mxGeometry relative="1" as="geometry">
            <mxPoint x="350" y="480" as="targetPoint" />
          </mxGeometry>
        </mxCell>
        <mxCell id="hDMgDi6doxB5p-2fpFnf-27" style="edgeStyle=orthogonalEdgeStyle;rounded=0;orthogonalLoop=1;jettySize=auto;html=1;" edge="1" parent="1" source="hDMgDi6doxB5p-2fpFnf-24">
          <mxGeometry relative="1" as="geometry">
            <mxPoint x="240" y="470" as="targetPoint" />
          </mxGeometry>
        </mxCell>
        <mxCell id="hDMgDi6doxB5p-2fpFnf-24" value="50" style="ellipse;whiteSpace=wrap;html=1;" vertex="1" parent="1">
          <mxGeometry x="280" y="430" width="40" height="30" as="geometry" />
        </mxCell>
        <mxCell id="hDMgDi6doxB5p-2fpFnf-36" style="edgeStyle=orthogonalEdgeStyle;rounded=0;orthogonalLoop=1;jettySize=auto;html=1;" edge="1" parent="1" source="hDMgDi6doxB5p-2fpFnf-29">
          <mxGeometry relative="1" as="geometry">
            <mxPoint x="280" y="500" as="targetPoint" />
          </mxGeometry>
        </mxCell>
        <mxCell id="hDMgDi6doxB5p-2fpFnf-38" style="edgeStyle=orthogonalEdgeStyle;rounded=0;orthogonalLoop=1;jettySize=auto;html=1;" edge="1" parent="1" source="hDMgDi6doxB5p-2fpFnf-29">
          <mxGeometry relative="1" as="geometry">
            <mxPoint x="180" y="510" as="targetPoint" />
          </mxGeometry>
        </mxCell>
        <mxCell id="hDMgDi6doxB5p-2fpFnf-29" value="30" style="ellipse;whiteSpace=wrap;html=1;" vertex="1" parent="1">
          <mxGeometry x="220" y="470" width="40" height="30" as="geometry" />
        </mxCell>
        <mxCell id="hDMgDi6doxB5p-2fpFnf-33" style="edgeStyle=orthogonalEdgeStyle;rounded=0;orthogonalLoop=1;jettySize=auto;html=1;" edge="1" parent="1" source="hDMgDi6doxB5p-2fpFnf-30">
          <mxGeometry relative="1" as="geometry">
            <mxPoint x="310" y="540" as="targetPoint" />
          </mxGeometry>
        </mxCell>
        <mxCell id="hDMgDi6doxB5p-2fpFnf-48" style="edgeStyle=orthogonalEdgeStyle;curved=1;rounded=0;orthogonalLoop=1;jettySize=auto;html=1;" edge="1" parent="1" source="hDMgDi6doxB5p-2fpFnf-30">
          <mxGeometry relative="1" as="geometry">
            <mxPoint x="430" y="540" as="targetPoint" />
          </mxGeometry>
        </mxCell>
        <mxCell id="hDMgDi6doxB5p-2fpFnf-30" value="60" style="ellipse;whiteSpace=wrap;html=1;" vertex="1" parent="1">
          <mxGeometry x="330" y="480" width="40" height="30" as="geometry" />
        </mxCell>
        <mxCell id="hDMgDi6doxB5p-2fpFnf-31" value="value = 70" style="text;html=1;align=center;verticalAlign=middle;resizable=0;points=[];autosize=1;strokeColor=none;fillColor=none;" vertex="1" parent="1">
          <mxGeometry x="370" y="400" width="80" height="30" as="geometry" />
        </mxCell>
        <mxCell id="hDMgDi6doxB5p-2fpFnf-34" value="nullptr" style="text;html=1;align=center;verticalAlign=middle;resizable=0;points=[];autosize=1;strokeColor=none;fillColor=none;" vertex="1" parent="1">
          <mxGeometry x="280" y="538" width="60" height="30" as="geometry" />
        </mxCell>
        <mxCell id="hDMgDi6doxB5p-2fpFnf-39" value="nullptr" style="text;html=1;align=center;verticalAlign=middle;resizable=0;points=[];autosize=1;strokeColor=none;fillColor=none;" vertex="1" parent="1">
          <mxGeometry x="250" y="500" width="60" height="30" as="geometry" />
        </mxCell>
        <mxCell id="hDMgDi6doxB5p-2fpFnf-40" value="nullptr" style="text;html=1;align=center;verticalAlign=middle;resizable=0;points=[];autosize=1;strokeColor=none;fillColor=none;" vertex="1" parent="1">
          <mxGeometry x="150" y="510" width="60" height="30" as="geometry" />
        </mxCell>
        <mxCell id="hDMgDi6doxB5p-2fpFnf-43" style="edgeStyle=orthogonalEdgeStyle;rounded=0;orthogonalLoop=1;jettySize=auto;html=1;entryX=0.75;entryY=0;entryDx=0;entryDy=0;entryPerimeter=0;curved=1;" edge="1" parent="1" source="hDMgDi6doxB5p-2fpFnf-42" target="hDMgDi6doxB5p-2fpFnf-24">
          <mxGeometry relative="1" as="geometry" />
        </mxCell>
        <mxCell id="hDMgDi6doxB5p-2fpFnf-42" value="temp" style="text;html=1;align=center;verticalAlign=middle;resizable=0;points=[];autosize=1;strokeColor=none;fillColor=none;" vertex="1" parent="1">
          <mxGeometry x="445" y="428" width="50" height="30" as="geometry" />
        </mxCell>
        <mxCell id="hDMgDi6doxB5p-2fpFnf-50" style="edgeStyle=orthogonalEdgeStyle;curved=1;rounded=0;orthogonalLoop=1;jettySize=auto;html=1;" edge="1" parent="1" source="hDMgDi6doxB5p-2fpFnf-49">
          <mxGeometry relative="1" as="geometry">
            <mxPoint x="480" y="580" as="targetPoint" />
          </mxGeometry>
        </mxCell>
        <mxCell id="hDMgDi6doxB5p-2fpFnf-51" style="edgeStyle=orthogonalEdgeStyle;curved=1;rounded=0;orthogonalLoop=1;jettySize=auto;html=1;" edge="1" parent="1" source="hDMgDi6doxB5p-2fpFnf-49">
          <mxGeometry relative="1" as="geometry">
            <mxPoint x="390" y="580" as="targetPoint" />
          </mxGeometry>
        </mxCell>
        <mxCell id="hDMgDi6doxB5p-2fpFnf-49" value="80" style="ellipse;whiteSpace=wrap;html=1;" vertex="1" parent="1">
          <mxGeometry x="415" y="541" width="30" height="27" as="geometry" />
        </mxCell>
        <mxCell id="hDMgDi6doxB5p-2fpFnf-52" value="nullptr" style="text;html=1;align=center;verticalAlign=middle;resizable=0;points=[];autosize=1;strokeColor=none;fillColor=none;" vertex="1" parent="1">
          <mxGeometry x="450" y="578" width="60" height="30" as="geometry" />
        </mxCell>
        <mxCell id="hDMgDi6doxB5p-2fpFnf-53" value="nullptr" style="text;html=1;align=center;verticalAlign=middle;resizable=0;points=[];autosize=1;strokeColor=none;fillColor=none;" vertex="1" parent="1">
          <mxGeometry x="360" y="578" width="60" height="30" as="geometry" />
        </mxCell>
      </root>
    </mxGraphModel>
  </diagram>
</mxfile>
